<?xml version="1.0" standalone="no"?><!DOCTYPE svg PUBLIC "-//W3C//DTD SVG 1.1//EN" "http://www.w3.org/Graphics/SVG/1.1/DTD/svg11.dtd"><svg t="1754560616785" class="icon" viewBox="0 0 1024 1024" version="1.1" xmlns="http://www.w3.org/2000/svg" p-id="17823" xmlns:xlink="http://www.w3.org/1999/xlink" width="200" height="200"><path d="M512 256C256 256 85.333333 512 85.333333 512s170.666667 256 426.666667 256 426.666667-256 426.666667-256-170.794667-256-426.666667-256z m0 424.789333a169.813333 169.813333 0 1 1 0.042667-339.626666 169.813333 169.813333 0 0 1-0.042667 339.626666z m-85.333333-169.301333c0 22.272 9.173333 44.373333 24.874666 60.074667 15.701333 15.701333 37.845333 24.874667 60.074667 24.874666 22.272 0 44.373333-9.173333 60.074667-24.874666 15.701333-15.701333 24.874667-37.802667 24.874666-60.074667 0-22.229333-9.173333-44.373333-24.874666-60.074667a86.016 86.016 0 0 0-60.074667-24.874666c-22.229333 0-44.373333 9.173333-60.074667 24.874666A86.229333 86.229333 0 0 0 426.666667 511.488z" fill="#4A4A4A" p-id="17824"></path></svg>